<svg width="1600" height="1280" viewBox="0 0 1600 1280" fill="none" xmlns="http://www.w3.org/2000/svg">
  <defs>
    <linearGradient id="bg" x1="0" y1="0" x2="1" y2="1">
      <stop offset="0%" stop-color="#081426"/>
      <stop offset="55%" stop-color="#0b1f39"/>
      <stop offset="100%" stop-color="#122f56"/>
    </linearGradient>
    <linearGradient id="road" x1="0" y1="0" x2="0" y2="1">
      <stop offset="0%" stop-color="#1f3856"/>
      <stop offset="100%" stop-color="#0a1730"/>
    </linearGradient>
    <linearGradient id="car" x1="0" y1="0" x2="1" y2="0">
      <stop offset="0%" stop-color="#63d5ff"/>
      <stop offset="100%" stop-color="#2f6fec"/>
    </linearGradient>
  </defs>
  <rect width="1600" height="1280" fill="url(#bg)"/>
  <circle cx="1210" cy="260" r="210" fill="#173c68" opacity="0.34"/>
  <circle cx="1410" cy="1040" r="240" fill="#1a487c" opacity="0.22"/>
  <path d="M980 180H1510" stroke="#6fcfff" stroke-opacity="0.18" stroke-width="2"/>
  <path d="M980 228H1450" stroke="#6fcfff" stroke-opacity="0.14" stroke-width="2"/>
  <path d="M980 276H1540" stroke="#6fcfff" stroke-opacity="0.12" stroke-width="2"/>
  <rect x="1020" y="356" width="500" height="720" rx="42" fill="url(#road)" opacity="0.92"/>
  <path d="M1270 388V1044" stroke="#d7eefc" stroke-opacity="0.46" stroke-width="10" stroke-dasharray="34 28"/>
  <path d="M1156 420V1016" stroke="#7dc9ff" stroke-opacity="0.12" stroke-width="4"/>
  <path d="M1384 420V1016" stroke="#7dc9ff" stroke-opacity="0.12" stroke-width="4"/>
  <g transform="translate(1140 620)">
    <rect x="0" y="0" width="260" height="110" rx="30" fill="url(#car)"/>
    <rect x="44" y="-26" width="172" height="64" rx="20" fill="#dff7ff" opacity="0.96"/>
    <circle cx="54" cy="118" r="30" fill="#101928"/>
    <circle cx="206" cy="118" r="30" fill="#101928"/>
    <circle cx="54" cy="118" r="12" fill="#8ee7ff"/>
    <circle cx="206" cy="118" r="12" fill="#8ee7ff"/>
    <path d="M260 44H330" stroke="#83e6ff" stroke-width="14" stroke-linecap="round"/>
    <path d="M312 20L336 44L312 68" stroke="#83e6ff" stroke-width="14" stroke-linecap="round" stroke-linejoin="round"/>
  </g>
  <rect x="1000" y="88" width="420" height="104" rx="24" fill="#0e223e" fill-opacity="0.7" stroke="#5aa7df" stroke-opacity="0.28"/>
  <text x="1038" y="136" fill="#e9f6ff" font-size="34" font-family="Segoe UI, Noto Sans SC, sans-serif" font-weight="700">A1 智能视觉底盘</text>
  <text x="1038" y="176" fill="#9ec5ec" font-size="20" font-family="Segoe UI, Noto Sans SC, sans-serif">Video · Depth · Chassis Motion</text>
</svg>
