<svg xmlns="http://www.w3.org/2000/svg" width="640" height="480" viewBox="0 0 640 480">
  <defs>
    <linearGradient id="cyanGlow" x1="0" y1="0" x2="1" y2="1">
      <stop offset="0" stop-color="#38f8ff"/>
      <stop offset="1" stop-color="#0ea5e9"/>
    </linearGradient>
    <linearGradient id="magentaGlow" x1="0" y1="0" x2="1" y2="1">
      <stop offset="0" stop-color="#ff4fd8"/>
      <stop offset="1" stop-color="#7c3aed"/>
    </linearGradient>
    <filter id="softGlow" x="-40%" y="-40%" width="180%" height="180%">
      <feGaussianBlur stdDeviation="3" result="blur"/>
      <feMerge>
        <feMergeNode in="blur"/>
        <feMergeNode in="SourceGraphic"/>
      </feMerge>
    </filter>
  </defs>

  <rect width="640" height="480" fill="none"/>

  <g opacity="0.72" stroke="#0f2740" stroke-width="1">
    <path d="M0 80 H640 M0 400 H640 M80 0 V480 M560 0 V480"/>
    <path d="M0 160 H640 M0 320 H640 M160 0 V480 M320 0 V480 M480 0 V480" opacity="0.45"/>
  </g>

  <g filter="url(#softGlow)" fill="none" stroke-linecap="round" stroke-linejoin="round">
    <path d="M32 96 V32 H124" stroke="url(#cyanGlow)" stroke-width="5"/>
    <path d="M46 110 V46 H138" stroke="#38f8ff" stroke-width="2" opacity="0.9"/>
    <path d="M608 96 V32 H516" stroke="url(#magentaGlow)" stroke-width="5"/>
    <path d="M594 110 V46 H502" stroke="#ff4fd8" stroke-width="2" opacity="0.9"/>
    <path d="M32 384 V448 H124" stroke="url(#magentaGlow)" stroke-width="5"/>
    <path d="M46 370 V434 H138" stroke="#ff4fd8" stroke-width="2" opacity="0.9"/>
    <path d="M608 384 V448 H516" stroke="url(#cyanGlow)" stroke-width="5"/>
    <path d="M594 370 V434 H502" stroke="#38f8ff" stroke-width="2" opacity="0.9"/>
  </g>

  <g fill="none" stroke="#38f8ff" stroke-width="2" opacity="0.9">
    <rect x="18" y="18" width="604" height="444" rx="20" opacity="0.55"/>
    <rect x="54" y="74" width="532" height="332" rx="18" opacity="0.35"/>
  </g>

  <g opacity="0.92">
    <rect x="42" y="26" width="206" height="34" rx="10" fill="#06131f" opacity="0.62"/>
    <text x="58" y="49" font-family="Arial, Helvetica, sans-serif" font-size="18" font-weight="700" fill="#d7fbff">A1 VISION CONTROL</text>
    <path d="M258 43 H342 L358 27 H452" fill="none" stroke="#38f8ff" stroke-width="2" opacity="0.8"/>
    <circle cx="468" cy="27" r="4" fill="#ff4fd8"/>
    <circle cx="482" cy="27" r="4" fill="#38f8ff"/>
  </g>

  <g font-family="Arial, Helvetica, sans-serif" font-weight="700" font-size="13" letter-spacing="1.6">
    <rect x="424" y="32" width="152" height="28" rx="8" fill="#06131f" opacity="0.55"/>
    <text x="438" y="51" fill="#38f8ff">CAMERA</text>
    <text x="502" y="51" fill="#d7fbff">YOLO</text>
    <text x="550" y="51" fill="#ff4fd8">OSD</text>
  </g>

  <g opacity="0.82" fill="none" stroke-linecap="round">
    <path d="M64 430 H242" stroke="#38f8ff" stroke-width="3"/>
    <path d="M252 430 H336" stroke="#ff4fd8" stroke-width="3"/>
    <path d="M346 430 H576" stroke="#38f8ff" stroke-width="3"/>
    <path d="M82 446 H558" stroke="#0ea5e9" stroke-width="1" opacity="0.65"/>
  </g>

  <g font-family="Arial, Helvetica, sans-serif" font-size="12" font-weight="700" opacity="0.86">
    <text x="66" y="424" fill="#d7fbff">TARGET</text>
    <text x="278" y="424" fill="#d7fbff">ACTION</text>
    <text x="498" y="424" fill="#d7fbff">CHASSIS</text>
  </g>

  <g opacity="0.88">
    <path d="M30 236 h44 l14 -14 h34" fill="none" stroke="#38f8ff" stroke-width="2"/>
    <path d="M610 244 h-44 l-14 14 h-34" fill="none" stroke="#ff4fd8" stroke-width="2"/>
    <circle cx="126" cy="222" r="3" fill="#38f8ff"/>
    <circle cx="514" cy="258" r="3" fill="#ff4fd8"/>
  </g>
</svg>
